# xmcd
#
# Track frame offsets: 
#        150
#        19039
#        34814
#        53113
#        69697
#        84782
#        108151
#        126585
#        142262
#        165189
#        180408
#
# Disc length: 2639 seconds
#
# Revision: 0
# Processed by: cddbd v1.5.2PL0 Copyright (c) Steve Scherf et al.
# Submitted via: ExactAudioCopy v1.0b3
#
DISCID=8c0a4d0b
DTITLE=The Bros. Landreth - Let it Lie
DYEAR=2013
DGENRE=Country
TTITLE0=Our Love
TTITLE1=Firecracker
TTITLE2=Let It Lie
TTITLE3=I Am The Fool
TTITLE4=Made Up Mind
TTITLE5=Greenhouse
TTITLE6=Tappin' On The Glass
TTITLE7=Runaway Train
TTITLE8=Nothing
TTITLE9=Going To The Country
TTITLE10=Where Were We?
EXTD=
EXTT0=
EXTT1=
EXTT2=
EXTT3=
EXTT4=
EXTT5=
EXTT6=
EXTT7=
EXTT8=
EXTT9=
EXTT10=
PLAYORDER=
